# xmcd CD database file
#
# Track frame offsets:
#	150
#	16423
#	44935
#	62819
#	82221
#	115653
#	137300
#	153223
#	174605
#	212098
#	223336
#	253919
#	276271
#
# Disc length: 3928 seconds
#
# Revision: 1
# Processed by: cddbd v1.4PL0 Copyright (c) Steve Scherf et al.
# Submitted via: jetAudio 5
#
DISCID=c80f560d
DTITLE=Blue Mother Tupelo - Delta Low Mountain High
DYEAR=1900
DGENRE=
TTITLE0=I Feel So Glad
TTITLE1=You'll Be Mine
TTITLE2=Appalachian Sunshine
TTITLE3=For The Love Of You
TTITLE4=Without You
TTITLE5=Workin' Man
TTITLE6=Como Dust
TTITLE7=What A Shame
TTITLE8=Afaid To Fall
TTITLE9=I Feel Like A Dog
TTITLE10=Boogie Blues
TTITLE11=What She's Doin' To Me
TTITLE12=Home
EXTD=
EXTT0=
EXTT1=
EXTT2=
EXTT3=
EXTT4=
EXTT5=
EXTT6=
EXTT7=
EXTT8=
EXTT9=
EXTT10=
EXTT11=
EXTT12=
PLAYORDER=
